<?xml version="1.0" encoding="UTF-8"?>
<!DOCTYPE svg PUBLIC "-//W3C//DTD SVG 1.1//EN" "http://www.w3.org/Graphics/SVG/1.1/DTD/svg11.dtd">
<!-- Creator: CorelDRAW 2020 (64-Bit) -->
<svg xmlns="http://www.w3.org/2000/svg" xml:space="preserve" width="2067px" height="591px" version="1.1" shape-rendering="geometricPrecision" text-rendering="geometricPrecision" image-rendering="optimizeQuality" fill-rule="evenodd" clip-rule="evenodd"
viewBox="0 0 2067 590.57"
 xmlns:xlink="http://www.w3.org/1999/xlink"
 xmlns:xodm="http://www.corel.com/coreldraw/odm/2003">
 <g id="Capa_x0020_1">
  <metadata id="CorelCorpID_0Corel-Layer"/>
  <path  d="M1641.35 499.73c-5.2,-43.15 8.58,-214.09 0.59,-235.61l4.29 108.75 32.85 4.06 1.52 -36.76c0.27,17.27 -0.87,21.28 3,34.92l2.76 -93.63c2.79,28.65 4.08,185.8 2.15,219.83l1.67 -230.24c21.97,2.26 32.52,32.62 49.1,50.24l1.73 -4.92c14.26,27.16 18.45,52.26 27.65,85.73l3.64 -13.66 2.54 22.44 2.49 -23.02c11.37,6.82 10.52,22.63 22.89,23.28 3.74,-61.33 -0.21,-45.08 -1.04,-78.83 -4.29,-39.04 -29.44,-68.99 -32.92,-95.34l21.41 -44.28 -3.49 -2.09c-9.42,14.32 -8.51,20.87 -19.82,33.1l-1.76 31.99c3.59,7.1 12.95,24.88 14.23,31 -8.31,-2.19 -6.39,3.26 -14.82,-0.43 -13.13,-5.73 -6.61,-4.13 -18.86,1.86l-0.53 21.59c-1.47,-1.14 -47.93,-82.42 -58.36,-39.73l-5.2 -8.87c-0.6,23.75 1.29,5.74 -2.65,19.08l-2.26 -19.87 -16.87 1 -6.58 34.95c-2.82,-42.78 -14.82,-177.1 -0.47,-212.69l-3.5 -3.67c-10.69,22.46 -6.99,63.22 -7,94.78 -0.01,36.26 0.05,72.52 0,108.78 -0.06,35.93 -2.49,195.5 1.62,216.26zm-72.19 -202.89c9.36,-8.07 11.9,2.15 14.48,18.97l6.93 -0.64 1.22 -16.24 10.22 -1.41 3.43 -15.34c10.56,16.58 3.33,20.48 15.57,15.43 -2.45,-21.38 -8.59,-48.83 -17.57,-57.26l0.46 -9.78c-9.01,-38.74 -90.49,-45.29 -112.27,-59.23 -9.01,-6.05 -2.23,-5.77 -9.53,-9.67l-0.7 20.4c15.63,15.76 26.48,-3.25 36.58,16.13 -7.8,9.89 -25.7,10.41 -35.75,9.6 -8.2,-7.13 -9.95,-33.04 -19.15,-7 -9.56,-8.24 -3.88,-7.93 -13.68,-1.65 -10.32,-30.63 -9.41,-35.72 -1.96,-64.45 11.89,-45.8 14.36,-28 29.57,-48.24 18.37,-24.46 13.35,2.56 16.3,-19.55 -64.57,8.76 -66.03,130.4 -40.44,172.3 14.74,24.16 36.28,31.94 54.71,37.67l61.58 19.96zm-77.53 -125.5l-1.81 -8.27c44.1,-11.67 104.69,20.71 111.49,-35.44 3.17,-65.34 -16.83,-62.58 -40.51,-62.77 -20.53,-0.16 -47.76,-3.14 -67.49,2.05 -2.95,22.11 2.07,-4.91 -16.3,19.55 -15.21,20.24 -17.68,2.44 -29.57,48.24 -7.45,28.73 -8.36,33.82 1.96,64.45 9.8,-6.28 4.12,-6.59 13.68,1.65 9.2,-26.04 10.95,-0.13 19.15,7 10.05,0.81 27.95,0.29 35.75,-9.6 -10.1,-19.38 -20.95,-0.37 -36.58,-16.13l0.7 -20.4c7.3,3.9 0.52,3.62 9.53,9.67zm-617.58 184.92l-1.25 16.88c5.37,38.79 -2.75,34.37 -3.64,63.02 -0.75,24.41 2.49,3.33 1.51,25.72 -0.71,16.42 -4.33,9.37 0.54,29.25l2.58 -60.54 36.7 -1.12c4.34,-32.9 7.94,-83.07 17.88,-106.32 6.62,-2.84 11.11,-4.9 13.98,9.18l30.5 17.77c9.17,-6.8 23.48,15.99 30.45,28.95 11.74,21.83 9.87,35.79 12.47,44.76 0.05,0.19 4.3,11.36 5.33,15.05l3.25 -17.14c5.11,14.95 3.66,3.81 4.23,25.97 2.08,-36.66 0.42,-5.5 20.38,-23.68l7.7 25.28 -0.89 -35.27 5.1 -5.37c-2.95,-33.14 -16.1,-128.66 -25.82,-147.79 -1.27,14.42 0.43,23.64 1.9,36.42 -10.26,3.18 -8.16,6.52 -13.95,-9.55 -5.61,15.91 -6,10.27 -12.26,24.64 -10.8,-3.6 -18.18,-9.94 -29.02,-15.12 -0.32,-18.26 -0.13,-13.07 3.5,-26.32l-3.45 -10.83 -30.86 -14.56 -5.08 -4.65 4.03 -21.45 -4.56 7.39c-0.49,18.72 2.17,3.74 -1.33,19.61 9.51,4.87 5.47,7.4 16.79,10.16 8.54,2.09 8.85,2.32 15.23,13.27l1.28 29.72 -33.01 -3.72c-0.02,0.18 -1.15,8.46 -1.48,10.18l-13.21 -7.8c-6.43,13.16 -2.58,12.04 -11.29,20.68 -3.61,-13.01 -2.33,3.38 -2.72,-19.27 -7.77,-5.01 -5.35,-2.19 -9.85,-14.66 -6.05,19.71 -2.45,16.79 -14.36,15.76 -0.18,-38.63 8.71,-32.3 8.87,-80.71 -6.35,14.54 -25.11,115.57 -26.17,136.21zm754.97 15.55l-4.75 1.28c-5.52,44.42 -4.91,32.46 -12.42,34.37l-8.65 -42.9c-2.72,-8 3.84,-5.61 -5.15,-6.65 -4.01,21.43 1.16,20.69 -14.01,18.06 -0.19,-5.56 1.41,-62.68 -3.29,-48.71 -5.15,71.19 2.15,108.46 -76.55,108.42 -14.83,-0.01 -46.07,-5.97 -57.63,10.53 -14.3,20.44 -12.32,72.96 7.13,83.88 20.41,11.46 95.35,1.55 116.71,-13.06 32.53,-22.26 55.66,-68.01 58.61,-145.22zm-317.29 -130.84c0.79,-20.56 6.84,-42.99 13.87,-56.24 7.96,17.15 16.87,51.94 19.63,74.28 -10.39,0.76 -24.19,-8.41 -33.5,-18.04zm-65.03 54.64c4.57,36.87 -5.36,42.76 -5.55,77.55l8.55 1.39 3.31 -30.2c4.12,12.29 3.04,7.69 3.25,24.15l8.87 7.22 0.54 33.27c8.09,-4.07 7.45,-18.83 7.81,-34.59l6.39 -1.25 4.21 -38.59 3.39 12.43 5.5 -16.02c12.58,2.42 22.65,5.23 34.29,15.36 7.14,6.22 20.38,24.56 26.47,25.21l7.99 -2.34 13.03 25.87 9.72 -2.54 1.26 -18.96 23.13 1.44c1.59,-47.32 -10.64,-50.21 -1.77,-67.66 -4.36,-31.18 -25.15,-135.06 -35.48,-153.06 -3.78,31.39 8.15,31.86 10.41,68.08l-13.62 2.45 -5.62 -20.09c-1.94,9.56 -3.94,21.71 -4.82,32.52 -4.39,-5.54 -3.53,2.25 -4.55,-12.88l-3.33 17.52c-8.96,-27.05 -12.71,-66.32 -29.36,-60.89 -5.35,11.16 -7.75,24.66 -11.4,33.8 -4.81,12 -7.57,2.61 -14.27,25.15 -8.48,-2.89 -14.2,2.36 -24.16,20.73 0.04,-26.23 -3.2,-42.66 2.17,-63.33 5.77,-22.26 9.77,-23.63 8.32,-52.28 -7.22,14.1 -33.49,127.02 -34.68,150.54zm400.03 -215.7l3.5 3.67c-14.35,35.59 -2.35,169.91 0.47,212.69l6.58 -34.95 16.87 -1 2.26 19.87c3.94,-13.34 2.05,4.67 2.65,-19.08l5.2 8.87c10.43,-42.69 56.89,38.59 58.36,39.73l0.53 -21.59c12.25,-5.99 5.73,-7.59 18.86,-1.86 8.43,3.69 6.51,-1.76 14.82,0.43 -1.28,-6.12 -10.64,-23.9 -14.23,-31l1.76 -31.99c11.31,-12.23 10.4,-18.78 19.82,-33.1l3.49 2.09c11.12,-22.07 21.35,-63.13 15.86,-96.39 -6.31,-38.19 -31.71,-40.94 -41.64,-14.45 -11.61,30.98 -4.71,50.09 -25.73,81.36 -5.91,8.79 -13.23,20.68 -20.79,21.2 -4.44,0.3 -21.66,-6.87 -25.1,-11.39 -2.63,-29.17 3.01,-75.06 -7.87,-96.72 -9.22,-18.37 -28.33,-20.19 -35.67,3.61zm281.91 103.63c8.23,9.48 19.92,56.13 21.63,78.31l-34.15 -18.21 -0.7 -11.4 -1.47 -11.5 -9.01 2.3 -0.49 36.01c-4.94,0.11 -11.59,2.06 -16.13,-1.99 -6.81,-6.06 -2.43,-4.91 -4.14,-8.63 -13.34,-29.06 3.69,-2.66 -5.38,-7.19 -6.53,25.22 -2.05,25.65 -14.93,41.52 -1.18,-31.47 8.5,-34.48 4.47,-62.71 -8.11,16.18 -18.96,70.19 -20.69,96.45 3.69,31.57 -10.28,78.29 -10.54,169.82l4.49 -5.02c0,-32.49 -0.15,-51.65 6.72,-80.17l32.09 0.22 4.45 -46.51c1.8,-16.44 5.25,-21.53 11.18,-33.59l22.51 4.82c6.98,1.34 16.87,2.23 22.88,9.73 12.56,15.68 2.99,10.58 18.86,8.83l0.85 -10.01c12.89,9 13.17,-3.12 39.47,2.22l4.85 34.25 7.71 -2.16c-4.36,-11.76 -4.38,-34.31 -5.44,-52.99 -1.17,-20.66 -7.49,-46.14 -7.76,-62.63l-3.82 -32.46c-9.34,-20.53 -13.95,-61.5 -24.04,-83.82 1.38,39.37 13.24,44.05 10.93,86l-13.28 1c-5.49,-19.44 0.43,-8.49 -6.27,-15.67 -7.59,28.86 -3.88,4.15 -11.56,25.78 -9.96,-21.87 -6.84,-52.41 -23.48,-55.83 -2.94,4.81 -2.89,-0.01 0.19,5.23zm-60.3 36.51c4.03,28.23 -5.65,31.24 -4.47,62.71 12.88,-15.87 8.4,-16.3 14.93,-41.52 9.07,4.53 -7.96,-21.87 5.38,7.19 1.71,3.72 -2.67,2.57 4.14,8.63 4.54,4.05 11.19,2.1 16.13,1.99l0.49 -36.01 9.01 -2.3 1.47 11.5 13.22 -48.7c-3.08,-5.24 -3.13,-0.42 -0.19,-5.23 16.64,3.42 13.52,33.96 23.48,55.83 7.68,-21.63 3.97,3.08 11.56,-25.78 6.7,7.18 0.78,-3.77 6.27,15.67l13.28 -1c2.31,-41.95 -9.55,-46.63 -10.93,-86 -9.89,-53.6 -39.77,-98.5 -63.56,-53.4 -10.92,20.7 -40.52,107.08 -40.21,136.42zm-791.3 274.6l4.75 25.13c26.03,21.78 84.76,14.22 114.77,12.07 28.2,-11.72 26.09,-79.47 5.03,-92.91 -16.03,-10.24 -55.71,0.9 -75.63,-4.61 -4.81,11.39 -1.46,-8.07 -4.38,15.89l-38.91 -2.36c-1.27,-21.85 1.39,-31.54 -6.69,-41.4l1.06 88.19zm-160.37 -338.46l4.66 2.76c-7.67,27.9 -10.93,29.1 -8.95,62.44 19.76,5.27 6.02,-24.87 22.76,-25.88l0.84 26.56 9.32 4.76 4.56 -7.39 -4.03 21.45 5.08 4.65c-2.02,-19.6 6.38,-50.32 13.29,-60.52l12.6 34.97 9.38 1.07 4.38 18.44c14.1,0.99 2.61,-12.71 19.86,-8.85 2.54,7.26 -6.28,0.4 6.08,-6.88 1.89,21.24 -0.55,10.66 4.53,17.54l1.79 -13.8c-4.69,-12.27 -12.01,-49.59 -11.17,-63.06 0.67,-19.85 -10.67,-46.16 -16.63,-61.05 -7.41,-18.48 -15.61,-36.92 -28.45,-39.17 -22.06,-3.85 -43.17,53.3 -49.9,91.96zm364.71 -11.12c1.45,28.65 -2.55,30.02 -8.32,52.28 -5.37,20.67 -2.13,37.1 -2.17,63.33 9.96,-18.37 15.68,-23.62 24.16,-20.73 6.7,-22.54 9.46,-13.15 14.27,-25.15 3.65,-9.14 6.05,-22.64 11.4,-33.8 16.65,-5.43 20.4,33.84 29.36,60.89l3.33 -17.52c1.02,15.13 0.16,7.34 4.55,12.88 0.88,-10.81 2.88,-22.96 4.82,-32.52l5.62 20.09 13.62 -2.45c-2.26,-36.22 -14.19,-36.69 -10.41,-68.08 -3.29,-33.48 -26.95,-87.75 -43.67,-90.18 -20.4,-2.96 -39.42,46.09 -46.56,80.96zm-204.34 349.58l-1.06 -88.19 2.41 -186.12c4.37,16.92 3.22,53.13 4.04,76.58l38.07 1.13 3.57 -199.3c-6.23,-44.9 -36.3,-47.07 -44.09,-12.67 -7.71,34.06 -4.21,91.76 -4.1,131.17 0.16,55.34 -3.14,237.28 1.16,277.4zm-1.06 -88.19c8.08,9.86 5.42,19.55 6.69,41.4l38.91 2.36c2.92,-23.96 -0.43,-4.5 4.38,-15.89 -0.96,-53.3 2.34,-309.76 -1.89,-335.58l-3.57 199.3 -38.07 -1.13c-0.82,-23.45 0.33,-59.66 -4.04,-76.58l-2.41 186.12zm277.75 -34.92c4.24,15.1 11.68,25.32 15.93,42.95 7.98,33.09 7.13,152.52 45.66,115.91 20.35,-19.34 12.36,-76.98 8.24,-113.81 -2.95,-26.35 -10.68,-87.78 -16.47,-109.24 -8.87,17.45 3.36,20.34 1.77,67.66l-23.13 -1.44 -1.26 18.96 -9.72 2.54 -13.03 -25.87 -7.99 2.34zm287.62 128.19c6.86,49.82 37.15,48.34 47.16,1.56 1.93,-34.03 0.64,-191.18 -2.15,-219.83l-2.76 93.63c-3.87,-13.64 -2.73,-17.65 -3,-34.92l-1.52 36.76 -32.85 -4.06 -4.29 -108.75c7.99,21.52 -5.79,192.46 -0.59,235.61zm187.44 -8.13c6.93,61.88 45.27,57.66 50.85,-2.44 3.48,-37.64 7.49,-128.43 16.89,-156.63l22.16 3.59 -0.14 -10.05 -22.51 -4.82c-5.93,12.06 -9.38,17.15 -11.18,33.59l-4.45 46.51 -32.09 -0.22c-6.87,28.52 -6.72,47.68 -6.72,80.17l-4.49 5.02c0.26,-91.53 14.23,-138.25 10.54,-169.82 -7.85,28.11 -21.97,141.97 -18.86,175.1zm-50.79 29.18c19.52,17.24 28.77,28.34 42.01,-19.91 2.15,-41.83 -7.59,-139.83 -20.83,-168.56 0.83,33.75 4.78,17.5 1.04,78.83 -12.37,-0.65 -11.52,-16.46 -22.89,-23.28l-2.49 23.02 -2.54 -22.44 -3.64 13.66c-9.2,-33.47 -13.39,-58.57 -27.65,-85.73l-1.73 4.92c1.11,10.41 10.06,29.12 13.63,40.97 4.45,14.83 7.87,31.99 10.56,49.17 6.67,42.48 5.45,67.18 14.53,109.35zm140.55 -194.71l0.14 10.05c7.16,5.71 12.96,8.82 20.07,15.74 6.89,6.71 13.52,17.72 20.26,21.55l6.62 -0.83c11.13,28.07 19.59,52.76 21.67,88.66l1.69 -13.53 36.19 1.89c0.4,-33.09 -9.84,-47.59 -0.77,-71.01l-9.97 -57.99c-3.01,-21.63 -6.69,-52.42 -14.48,-67.29 0.27,16.49 6.59,41.97 7.76,62.63 1.06,18.68 1.08,41.23 5.44,52.99l-7.71 2.16 -4.85 -34.25c-26.3,-5.34 -26.58,6.78 -39.47,-2.22l-0.85 10.01c-15.87,1.75 -6.3,6.85 -18.86,-8.83 -6.01,-7.5 -15.9,-8.39 -22.88,-9.73zm-1018.33 -106.02c-0.16,48.41 -9.05,42.08 -8.87,80.71 11.91,1.03 8.31,3.95 14.36,-15.76 4.5,12.47 2.08,9.65 9.85,14.66 0.39,22.65 -0.89,6.26 2.72,19.27 8.71,-8.64 4.86,-7.52 11.29,-20.68l13.21 7.8c0.33,-1.72 1.46,-10 1.48,-10.18l33.01 3.72 -1.28 -29.72c-6.38,-10.95 -6.69,-11.18 -15.23,-13.27 -11.32,-2.76 -7.28,-5.29 -16.79,-10.16 3.5,-15.87 0.84,-0.89 1.33,-19.61l-9.32 -4.76 -0.84 -26.56c-16.74,1.01 -3,31.15 -22.76,25.88 -1.98,-33.34 1.28,-34.54 8.95,-62.44l-4.66 -2.76 -16.45 63.86zm-27.42 153.09c-5.1,15.69 -5.45,41.35 -8.44,53.73 -1.82,36.97 -8.97,83.71 10.63,103.12 8.13,8.05 17.98,6.88 25.86,-1.78 8.27,-9.08 9.55,-26.99 13.32,-42.14 -0.36,-35.83 7.56,-124.97 15.42,-154.24l12.76 0.5c-2.87,-14.08 -7.36,-12.02 -13.98,-9.18 -9.94,23.25 -13.54,73.42 -17.88,106.32l-36.7 1.12 -2.58 60.54c-4.87,-19.88 -1.25,-12.83 -0.54,-29.25 0.98,-22.39 -2.26,-1.31 -1.51,-25.72 0.89,-28.65 9.01,-24.23 3.64,-63.02zm193.17 86.96l-5.1 -51.45 -5.1 5.37 0.89 35.27 -7.7 -25.28c-19.96,18.18 -18.3,-12.98 -20.38,23.68 -0.57,-22.16 0.88,-11.02 -4.23,-25.97l-3.25 17.14c-1.03,-3.69 -5.28,-14.86 -5.33,-15.05 -2.6,-8.97 -0.73,-22.93 -12.47,-44.76 -6.97,-12.96 -21.28,-35.75 -30.45,-28.95 11.23,18.55 19.85,21.73 29.96,48.46 11.4,30.14 9.41,53.11 13.98,87.73 9.87,74.75 54.79,67.25 49.18,-26.19zm915.84 27.78c6.39,13.5 2.96,20.21 12.16,36.72 13.88,17.29 19.54,9.74 32.66,-0.64 13.52,-54.18 4.16,-49.79 3.7,-102.02l-5.91 -43.35c-9.07,23.42 1.17,37.92 0.77,71.01l-36.19 -1.89 -1.69 13.53c-2.08,-35.9 -10.54,-60.59 -21.67,-88.66l-6.62 0.83c12.48,39.79 24.4,50.44 22.79,114.47zm-412.65 -191.04l11.59 30.42c4.7,-13.97 3.1,43.15 3.29,48.71 15.17,2.63 10,3.37 14.01,-18.06 8.99,1.04 2.43,-1.35 5.15,6.65l8.65 42.9c7.51,-1.91 6.9,10.05 12.42,-34.37l4.75 -1.28c8.75,-35.95 -5.33,-122.6 -25.12,-141.24l-0.46 9.78c8.98,8.43 15.12,35.88 17.57,57.26 -12.24,5.05 -5.01,1.15 -15.57,-15.43l-3.43 15.34 -10.22 1.41 -1.22 16.24 -6.93 0.64c-2.58,-16.82 -5.12,-27.04 -14.48,-18.97zm-289.29 76.31c-2.1,19.54 -5.16,37.94 -7.06,57.61 -1.9,19.79 -1.77,38.36 -11.1,43l-4.45 -25.87 -4.02 29.41 -5.73 -29.28 -9.96 5.17 -1.84 37.62c-0.12,-0.63 -0.78,2.43 -1.15,3.67 -1.11,-15.2 -0.47,-17.64 -0.98,-31.4 -0.58,-15.75 -1.47,-9.6 -1.92,-19.38 -1.18,-25.54 7.26,-34.44 -2.19,-42.33 -3.13,27.43 -9.36,74.9 -4.75,101.82 5.23,30.49 24.57,40.58 37.2,25.4 14.65,-17.61 13.02,-52.17 15.67,-85.22 2.71,-33.73 7.36,-64.89 9.88,-96.38l-3.39 -12.43 -4.21 38.59zm-303.07 -153.16l7.31 36.07 -2.34 4.04 3.45 10.83c-3.63,13.25 -3.82,8.06 -3.5,26.32 10.84,5.18 18.22,11.52 29.02,15.12 6.26,-14.37 6.65,-8.73 12.26,-24.64 5.79,16.07 3.69,12.73 13.95,9.55 -1.47,-12.78 -3.17,-22 -1.9,-36.42 -0.36,-20.93 -15.27,-86.06 -23.4,-96.41 -0.84,13.47 6.48,50.79 11.17,63.06l-1.79 13.8c-5.08,-6.88 -2.64,3.7 -4.53,-17.54 -12.36,7.28 -3.54,14.14 -6.08,6.88 -17.25,-3.86 -5.76,9.84 -19.86,8.85l-4.38 -18.44 -9.38 -1.07zm252.67 181.38c9.45,7.89 1.01,16.79 2.19,42.33 0.45,9.78 1.34,3.63 1.92,19.38 0.51,13.76 -0.13,16.2 0.98,31.4 0.37,-1.24 1.03,-4.3 1.15,-3.67l1.84 -37.62 9.96 -5.17 5.73 29.28 4.02 -29.41 4.45 25.87c9.33,-4.64 9.2,-23.21 11.1,-43 1.9,-19.67 4.96,-38.07 7.06,-57.61l-6.39 1.25c-0.36,15.76 0.28,30.52 -7.81,34.59l-0.54 -33.27 -8.87 -7.22c-0.21,-16.46 0.87,-11.86 -3.25,-24.15l-3.31 30.2 -8.55 -1.39c0.19,-34.79 10.12,-40.68 5.55,-77.55 -6.82,16.59 -14.3,80.18 -17.23,105.76z"/>
  <g id="_2610906357328">
   <path d="M736.15 497.45c-32.54,4.02 -64.44,2.15 -97.24,2.05 -31.73,-0.09 -62.64,-0.61 -94.08,-3.32 2.77,10.19 -5.19,37.58 -3.72,52.2 10.3,8.99 48.39,16.34 63.78,16.95 36.68,1.45 41.43,-9.83 51.06,-27.55 2.4,13.23 2.67,21.36 21.36,21.16 13.39,-0.14 24.46,-2.79 36.84,-5.49 40.18,-8.79 9.65,-37.37 22,-56zm-305.44 -303.17c-0.22,7.78 -1.47,2.75 0.19,11.04 -7.89,-0.63 -11.05,-2.89 -19.58,-2.07 -7.08,1.79 -25.43,19.45 4.11,41.09l-6.47 2.78c15.32,0.21 19.04,11.58 45.95,23.73 21.92,9.91 38.71,7.89 60.74,12.73 11.6,2.55 13.3,8.38 17.24,17.4 3.53,8.06 7.15,16.34 8.75,24.95 4.4,23.76 -3.74,37.2 -6.65,59.02l1.58 2.3c15.21,-0.78 59.75,-3.31 72.5,-7.13 6.89,-2.06 25.96,-4.3 34.23,-5.16 12.25,-1.27 23.04,-2.46 35.5,-3.41 3.59,-4.69 6.49,-2.64 20.67,-2.69 6.62,-0.03 12.88,0.72 19.06,1.43l-7.65 -23.44c-1.51,-11.79 5.2,-22.92 -2.9,-28.42l5.49 -7.93c5.88,-0.34 3.92,0.42 6.36,1.03l1.34 0.26c2.6,0.37 4.22,-3.48 7.12,6.52 10.09,-0.1 13.94,3.54 15.87,4.4l3.11 0.42c2.87,-3.68 -0.93,-0.43 4.11,-3.62 -0.47,-17.65 -4.13,-17.35 6.63,-23.86 3.97,-2.4 3.81,0.25 8.07,-4.72 -3.87,-5.54 -3.89,-3.17 -7.84,-6.26 -3.21,-2.5 -1.65,-2.43 -2.73,-3.84 -2.28,-2.95 -0.87,-1.06 -6.14,-4.01l1.42 -3.33c-2.75,-7.21 -62.64,-33.54 -72.68,-36.5 -6.49,-1.92 -8.01,0.21 -13.5,-3.63l-0.6 -4.68c3.02,-3.3 70.7,-31.07 55.47,-99.81 -20.23,-91.3 -159.42,-93.54 -179.66,1.99 -4.4,20.73 0.87,44.15 12.68,61.9 16.56,24.88 28.51,25.37 45.51,35.72 -1.94,4.24 -2.13,3.87 -6.21,6.7 -27.72,2.35 -51.93,-4.58 -80.09,-1.92 -21.31,2.01 -53.44,5.21 -67.39,-11.16 -0.81,-9.84 3.27,-33.22 -13.23,-32.02l-0.38 4.2zm248.09 177.27c7.9,-0.27 18.8,-0.73 26.51,0.21 6.21,0.75 12.73,3.52 18.87,4.57 -1.73,-14.73 -11.92,-32.32 -8.56,-58.21 25.67,1.24 57.32,37.47 54.83,60.02 -0.26,0.44 -18.07,8.27 -12.77,25.45 6.88,22.31 58.83,36.73 55.17,-28.24 -1.18,-21.09 -10.05,-41.49 -20.05,-60.1 -6.5,-12.09 -28.4,-37.12 -42.01,-41.76l-1.42 3.33c5.27,2.95 3.86,1.06 6.14,4.01 1.08,1.41 -0.48,1.34 2.73,3.84 3.95,3.09 3.97,0.72 7.84,6.26 -4.26,4.97 -4.1,2.32 -8.07,4.72 -10.76,6.51 -7.1,6.21 -6.63,23.86 -5.04,3.19 -1.24,-0.06 -4.11,3.62l-3.11 -0.42c-1.93,-0.86 -5.78,-4.5 -15.87,-4.4 -2.9,-10 -4.52,-6.15 -7.12,-6.52l-1.34 -0.26c-2.44,-0.61 -0.48,-1.37 -6.36,-1.03l-5.49 7.93c8.1,5.5 1.39,16.63 2.9,28.42l7.65 23.44c-6.18,-0.71 -12.44,-1.46 -19.06,-1.43 -14.18,0.05 -17.08,-2 -20.67,2.69zm-150.42 39.75c-2.25,6.39 -3.74,13.72 -5.54,20.32 -3.63,13.3 -20.97,41.55 -20.09,52.96 11.12,8.14 26.99,10.18 42.08,11.6 31.44,2.71 62.35,3.23 94.08,3.32 32.8,0.1 64.7,1.97 97.24,-2.05 14.94,-3.51 21.76,-7.03 21.6,-21.73 -6.51,0.64 -12.66,1.73 -19.4,0.57 -12.75,-2.19 -7.56,-3.52 -13.74,-6.1 -7.13,7.13 -12.86,15.72 -23.8,18.09 -17.83,3.87 -22,-6.01 -32.39,-8.78 -9.68,6.21 -15.83,16.66 -33.91,16.7 -21.88,0.05 -26.93,-12.42 -34.05,-15.46 -1.91,1.06 -5.55,4 -6.48,4.39 -2.54,1.08 -5.27,1.13 -8.28,2.02 -5.74,1.68 -14.12,2.7 -20.6,1.38 -10.93,-2.23 -18.1,-10.44 -19.4,-20.88 -3.1,-24.74 21.67,-41.47 15.87,-61.01 -8.29,-3.94 -27.49,-1.44 -33.19,4.66zm-0.89 -15.72c11.59,-3.91 27.45,-2.6 40.55,-3.92 38.69,-3.91 70.69,-12.69 115.18,-13.84 40.52,-1.05 48.14,4.35 50.39,33.9 1.55,20.35 8.43,26.53 19.26,41.43 3.93,5.4 4.06,7.93 3.21,14.45 -12.25,8.63 -24.36,-2.72 -35.88,-2.18 -3.64,2.93 -4.71,6.02 -8.33,9.1 -2.99,2.54 -6.52,4.82 -9.48,7.12 -25.68,2.57 -21.69,-9.51 -38.17,-7.4 -6.14,4.22 -8.1,8.9 -14.72,11.69 -34.97,14.72 -42.21,-17.08 -53.56,-18.79 -3.31,5.38 3.34,16.83 -26.53,15.41 -12.77,-0.6 -17.61,-11.1 -17.23,-21.5 0.76,-20.85 21.22,-29.68 16.39,-57.16 -5.03,-2.77 -3.43,-0.91 -7.75,-4.56 -5.83,-2.2 -24.93,2.22 -31.58,2.24l-1.75 -5.99zm7.5 -10.63l-1.53 2.93c-7.04,0.58 -6.28,-0.15 -11.59,3.61l-2.65 -0.94c0.04,7.26 2.05,13.4 -1.38,19.58 1.64,-2.52 1.07,-1.84 1.98,-3.89 1.05,-2.38 0.83,-2.26 2.26,-3.94 2.41,2.58 5.62,5.61 6.3,9 5.7,-6.1 24.9,-8.6 33.19,-4.66 5.8,19.54 -18.97,36.27 -15.87,61.01 1.3,10.44 8.47,18.65 19.4,20.88 6.48,1.32 14.86,0.3 20.6,-1.38 3.01,-0.89 5.74,-0.94 8.28,-2.02 0.93,-0.39 4.57,-3.33 6.48,-4.39 7.12,3.04 12.17,15.51 34.05,15.46 18.08,-0.04 24.23,-10.49 33.91,-16.7 10.39,2.77 14.56,12.65 32.39,8.78 10.94,-2.37 16.67,-10.96 23.8,-18.09 6.18,2.58 0.99,3.91 13.74,6.1 6.74,1.16 12.89,0.07 19.4,-0.57 13.27,-20.39 2.27,-14.45 -1.32,-30.87l-4.56 -2.11c-1.29,-5.39 -5.44,-10.76 -8.29,-16.76 -8.5,-17.91 2.75,-36.69 -19.4,-49.65 -6.14,-1.05 -12.66,-3.82 -18.87,-4.57 -7.71,-0.94 -18.61,-0.48 -26.51,-0.21 -12.46,0.95 -23.25,2.14 -35.5,3.41 -8.27,0.86 -27.34,3.1 -34.23,5.16 -12.75,3.82 -57.29,6.35 -72.5,7.13l-1.58 -2.3zm-126.03 -137.83l6.47 -2.78c-29.54,-21.64 -11.19,-39.3 -4.11,-41.09 8.53,-0.82 11.69,1.44 19.58,2.07 -1.66,-8.29 -0.41,-3.26 -0.19,-11.04l-4.39 0.26c-5.86,-6.82 -11.65,-8.4 -21.77,-5.79 -19.66,5.08 -25.73,39.12 -4.64,56.78 -6.56,9.39 -29.65,36.65 -40.42,43.86 -8.07,5.4 -16.5,1.74 -19.27,10.64 3.19,3.91 9.39,5.92 15.05,6.24 8.9,0.51 9.86,-1.12 14.59,-6.4 2.87,-3.21 5.57,-8.43 7.99,-12.38 3.94,-6.42 1.98,-7.82 9.93,-10.43 18.6,6.42 8.68,2.33 23.75,0.63 12.67,12.05 19.83,28.07 42.73,24.68l4.41 -4.48c-9.74,-8.72 -12.55,-0.28 -32.13,-20.25 -4.25,-4.34 -22.59,-26.5 -17.58,-30.52zm252.54 161.95c-3.36,-20.39 23.44,-20.17 29.18,-9.09 6.26,12.09 -14.49,24.83 -29.18,9.09zm7.43 -20.57c-30.42,10.66 -7.38,40.98 15.68,32.22 26.04,-9.89 9.02,-40.89 -15.68,-32.22zm1.82 49.3c5.61,-4.65 6.07,-4.53 13.93,-3.54 5.01,3.62 5.6,3.43 5.03,9.52 -7.58,8.42 -20.64,6.24 -18.96,-5.98zm0.91 -9.25c-22.84,10.26 -2.78,34.35 17.06,25.76 20.63,-8.93 5.36,-35.82 -17.06,-25.76zm-153.82 -18.42c3.43,-6.18 1.42,-12.32 1.38,-19.58 -2.21,-43.19 -13.11,-57.76 -47.49,-83.8 -19.92,-15.11 -25.1,12.83 -37.92,20.79 -7.07,4.39 -16.28,7.54 -24.62,9.62 -6.73,1.67 -26.54,4.15 -30.11,5.72 12.65,6.34 38.15,-0.6 50.67,-5.92 12.47,-5.3 28.23,-22.56 39.07,-20.21 10.77,2.34 25.03,18.98 28.91,28.04 4.66,10.88 7.82,38.35 0.26,48.13 -11.14,4.47 -25.82,-0.5 -37.51,-0.16 3.97,12.5 43.43,24.27 57.36,17.37zm-57.64 18.7c-4.64,6.92 -8.06,26.18 -8.93,34.82 -1.8,17.7 2.5,24.49 3.49,39.51 -17.2,-1.05 -28.7,-4.48 -47.78,-3.64 -28.53,1.25 -63.82,20.81 -101.93,21.82 -4.7,0.12 -19.13,-1.22 -21.36,-0.56 37.68,19.67 66.71,-3.44 101.08,-6.43 19.23,-1.67 36.79,0.36 54.18,7.17 20.76,8.12 16.54,16.02 45.73,15.39 -2.61,-12.78 -12.69,-17.36 -15.83,-52.42 -1.36,-15.21 4.86,-45.13 -8.65,-55.66zm-181.06 -33.99c-11.53,-4.69 -57.7,8.12 -7.54,-57.98 7.6,-10.02 29.13,-31.46 43.39,-29.91 3.85,3.9 2.82,5.41 8.12,9.63 5.38,4.28 30.16,21.21 34.25,19.84 -10.1,-7.99 -9.07,-7.06 -16.56,-17.24 -22.34,-30.35 -45.66,-18.6 -66.48,7 -8.46,10.39 -43.89,58 -25.73,69.03 7.19,4.37 25.29,7.16 30.55,-0.37zm7.92 101.37c39.39,-3.24 35.93,-65.72 23.77,-87.57 -11.63,7.12 -1.21,36.86 -14.97,69.04 -2.63,6.15 -7.38,12.49 -8.8,18.53zm93.33 -42.41c6.8,-18.04 -5.67,-52.88 -5.06,-64.15 0.41,-7.76 3.04,-15.17 3.27,-21.85 -12.29,6.35 -13.4,29.85 -8.48,41.22 5.98,13.8 6.38,36.89 10.27,44.78zm260.4 5.99c10.85,-14.07 22.32,11.74 1.48,4.4l-1.48 -4.4zm-7.73 5.29c11.35,13.79 31.64,9.49 28.66,-9.03 -5.5,-5.5 -8.43,-8.53 -18.33,-6.84 -9.9,1.7 -11.04,7.86 -10.33,15.87zm-243.05 -52.63l7.45 0.6c1.5,-5.31 1.81,-2.66 -0.47,-6.79 -6.38,-2.04 -8.09,0.71 -6.98,6.19zm3.12 30.37l7.22 0.96 1.23 -7.27 -7.82 -0.56 -0.63 6.87zm-8.2 -57.04l7.2 0.38 0.02 -6.51 -7.19 -0.71c-1.7,4.2 -2.16,2.53 -0.03,6.84z"/>
   <path  d="M389.48 83.3l8.66 -0.89c5.71,5.52 13.81,53.13 12.55,58.99 -15.37,8.89 -15.64,-10.9 -17.78,-21.05 -1.73,-8.25 -7.92,-30.89 -3.43,-37.05zm-32.47 68.16c-5.81,-6.3 -8.18,-19.64 -10.94,-27.86 -2.8,-8.34 -9.93,-23.77 -5.24,-30.96 6.35,-1.5 6.19,-1.22 11.52,0.99 5.67,-5.18 12.19,-10.88 21.2,-6.85 10.29,17.12 -22.89,3.83 -13.72,31.25 3.41,10.19 16.7,36.1 -2.82,33.43zm62.83 -29.42c-0.26,-26.32 40.95,-20.44 44.62,-23.5 6.9,-13.1 -28.88,-3.08 -37.98,-10.79l0.35 -6.81c6.16,-4.12 22.21,-2.26 30.44,-1.89 9.28,0.42 16.9,2.39 20.71,10.26 3.97,8.19 3.32,44.63 -2.21,51.61l-11.15 -3.13c-11.36,2.48 -16.14,5.99 -29.44,2.1 -9.57,-2.8 -15.25,-8.73 -15.34,-17.85zm-34.72 -66.27c15.22,-6.79 30.48,14.59 13.23,23.58 -17.6,9.18 -30.78,-15.75 -13.23,-23.58zm-129.86 16.34c0.02,5.38 -1.51,3.43 -7.63,6 -4.4,1.84 -4.93,3.42 -8.45,5.49 -5.24,3.1 -4.07,0.48 -9.48,4.48 -1.84,1.36 -2.71,2.27 -4.4,3.18l-20.24 13.12c-10.74,7.82 -6.5,7.62 -12.53,14.86 -7.3,0.98 -10.22,-1.14 -13.45,5.38l5.16 3.77c7.69,-1.59 6.28,-2.81 16.14,-2.92 2.3,3.57 1.38,0.98 1.77,6.11l5.38 0.72c15.82,-3.37 12.86,7.04 22.99,10.22 4.27,-0.77 4.51,-1.08 8.07,1.66 0.24,0.18 3.55,4.07 3.89,4.49 4.55,5.71 11.95,10.72 18.01,14.87 6.14,4.21 2.51,5.44 10.99,6.85 -0.35,-14.51 -4.3,-2.66 -9.33,-23.97 -2.31,-9.78 0.48,-17.43 6.14,-25.42 9.66,-13.65 36.09,-22.42 48.86,-10.29 -2.84,4.12 -0.1,0.81 -2.64,1.25 7.91,5.37 14.23,9.08 12.59,18.95l-24.77 12.63 -0.15 4.01 -10.95 4.11c10.89,10.55 20.42,1.5 23.02,0.48 4.01,-1.57 0.05,2.89 10.1,-7.91 3.54,3.55 -0.21,1.3 3.95,2.01 13.63,-5.65 13.7,-1.39 20.55,5.82 -7.06,17.92 -23.72,9.2 -22.77,20.45 6,0.36 9.85,-1.51 11.6,-1.11 -1.82,3.53 3.72,1.98 -11.66,2.88l-0.26 10.08c16.18,0 23.1,4.13 26.62,3.52 2.19,-0.37 5.93,-5.43 14.72,-5.41 0.61,0 2.53,0.01 3.11,0.11 3.4,0.61 1.76,0.26 4.27,1.79 10.46,-6.92 59.29,-11.94 73.86,-12.36 23.79,-0.68 57,1.42 79.2,7.95 -0.07,-10.85 -16.98,-41.77 9.43,-83.79 12.5,-19.9 41.94,-45.06 63.72,-46.46 -1.05,-4.87 -13.18,-6.39 -18.41,-7.85 -7.14,-2.01 -14.7,-3.7 -22,-5.27 -5.84,-1.26 -43.31,-7.28 -44.31,-8.14 -29.13,-0.61 -36.93,-4.11 -76.49,-2.72 -29.13,1.02 -72.17,6.63 -100.32,14.62 -21.33,6.05 -36.74,10.57 -56.92,18.76 -7.44,3.02 -20.33,9.68 -27.25,11.41l0.27 1.59zm-80.32 382.88c4.92,4.99 16.77,32.11 16.47,38.77 -1.26,2.62 -79.35,31.13 -85.68,28 -3.81,-3.75 -3.42,-3.5 -2.81,-8.57 7.72,-7.61 57.92,-18.96 71.82,-26.48 -1.45,-9.33 -21.53,-34.8 0.2,-31.72zm-10.94 -39.13c5.51,9.19 9.38,13.66 6.88,25.78 -1.67,8.06 -8.58,14.3 -18.02,15.22 -24.47,2.36 -27.39,-20.3 -32.21,-34.99l-5.9 0.16c-4.82,7.6 3.24,23.82 0.64,33.39 -5.06,2.81 -3.55,2.28 -9.67,1.3 -4.97,-4.82 -5.04,-16.13 -6.01,-22.86 -1.32,-9.26 -1.31,-17.63 8.32,-22.53 7.7,-3.92 50.02,-9.47 56.82,-6.26 2.75,4.05 2.67,7.05 -0.85,10.79zm-42.73 -39.4c9.35,-1.85 22.21,-4.45 28.39,-10.22 -24.13,-17.67 -42.34,-14.83 -49.94,-22.08 -2.54,-17.28 27.75,-3.99 36.85,-0.02 6.43,2.8 29.03,14.42 30.99,19.82 6.52,17.91 -66.57,33.24 -71.94,24.36 -1.95,-12.45 13.45,-9.44 25.65,-11.86zm-80.02 -36.39c-2.23,22.38 -5.07,40.93 -4.46,63.87 0.59,22.15 4.53,39.81 6.94,61.13 4.83,13.25 7.5,28.84 12.69,43.14 3.86,10.62 11.62,31.09 17.73,39.21l3.85 1.11c-2.1,1.26 -0.97,1.53 -0.79,-0.59 20.94,-2.74 158.13,1.83 184.51,-0.77 5.86,-0.58 0.21,-1.61 5.54,0.37l-0.61 -1.91c-0.93,-3.37 -18.2,-22.08 -22.15,-27.3 -50.58,-66.72 -55.38,-158.33 -11.42,-228.48 5.86,-9.34 17.29,-22.29 21.48,-30.09 -7.08,1.3 -21.48,23.97 -25.02,30.82l-8.21 5.77c1.59,2.88 4.98,2.53 -2.09,9.26 -5.76,-7.75 2.52,-2.97 -6.56,-8.05l0.35 -7.94 -4.66 -4.42c-0.08,6.76 -2.74,3.17 -4.71,3.5l0.34 -11.58c-6.4,2.07 -1.28,1.75 -5.16,-0.07 9.36,-10.38 -0.77,-14.97 -7.84,-20.39l-6.58 1.02c5.31,2.86 10.6,5.06 14.66,9.71l-1.29 5.88c-6.13,9.77 -43.98,-18.7 -61.38,-26.67l-0.06 5.38c3.76,1.31 2.24,-0.55 6.85,2l18.56 10.67c4.45,2.5 8.61,6.32 12,7.99 7.96,3.92 11.4,-0.05 10.26,9.41 -15.11,1.18 -19.04,-5.25 -22.1,-7.32 -4.09,3.6 -1.56,1.29 -7.18,3.85l5.85 1.74c7.83,4.26 20.13,3.96 26.11,10.67l-0.31 5.02c-3.07,2.29 -2.97,2.1 -6.37,3.88 2.5,16.89 -7.64,40.1 -30.7,32.92 -26.7,-8.33 -8.92,-36.21 -12.38,-44.86 -12.85,-3.02 -10.8,21.23 -19.81,28.65 -19.12,3.29 -5.46,-21.83 -1.56,-30.16 8.79,-18.8 22.93,-9.07 36.61,-9.16l1.99 -0.71c-2.94,-4.21 -14.68,-5.74 -20.5,-5.72 -10.14,0.05 -11.67,4.59 -19.06,5.77 3.04,3.63 3.63,2.4 -2.08,5.93l0.04 -13.89c0.27,-0.08 0.68,-0.16 0.82,-0.18l5.63 -0.87c6.19,-1.97 4.15,-0.89 5.97,-4.08 -4.15,-2.32 -5.06,-2.3 -10.67,-2.16 -5.39,-6.98 -3.87,-4.16 -38.39,-4.41 3.88,-7.16 -1.66,-1.56 0.84,-9.43 1.7,-5.34 4.1,-4.66 2.44,-11.84 -7.97,7.19 -19.37,37.99 -23.31,49.28 -3.21,9.18 -6.02,18.21 -8.45,27.64 -1.88,7.3 -4.06,22.08 -6.2,27.46zm37.96 -104.38c1.66,7.18 -0.74,6.5 -2.44,11.84 -2.5,7.87 3.04,2.27 -0.84,9.43 34.52,0.25 33,-2.57 38.39,4.41 5.61,-0.14 6.52,-0.16 10.67,2.16 -1.82,3.19 0.22,2.11 -5.97,4.08l-5.63 0.87c-0.14,0.02 -0.55,0.1 -0.82,0.18l-0.04 13.89c5.71,-3.53 5.12,-2.3 2.08,-5.93 7.39,-1.18 8.92,-5.72 19.06,-5.77 5.82,-0.02 17.56,1.51 20.5,5.72l-1.99 0.71c2.9,2.96 3.45,2.53 8.41,3.04l-5.85 -1.74c5.62,-2.56 3.09,-0.25 7.18,-3.85 3.06,2.07 6.99,8.5 22.1,7.32 1.14,-9.46 -2.3,-5.49 -10.26,-9.41 -3.39,-1.67 -7.55,-5.49 -12,-7.99l-18.56 -10.67c-4.61,-2.55 -3.09,-0.69 -6.85,-2l0.06 -5.38c0.77,-8.22 0.27,-8.76 9.99,-9.48 0.64,-17.28 12.85,-33.47 34.69,-26.75 5.97,1.84 36.6,19.24 41.14,23.35 2.07,4.42 -2.66,7.61 -4.21,9.01 -17.27,-0.14 -32.08,-22.59 -50.41,-19.32 -8.1,4.78 -11.75,13.65 -4.93,21.26 2.78,3.11 16.78,10.51 21.74,13.01l6.58 -1.02c7.07,5.42 17.2,10.01 7.84,20.39 3.88,1.82 -1.24,2.14 5.16,0.07l-0.34 11.58c1.97,-0.33 4.63,3.26 4.71,-3.5l4.66 4.42 -0.35 7.94c9.08,5.08 0.8,0.3 6.56,8.05 7.07,-6.73 3.68,-6.38 2.09,-9.26l8.21 -5.77c3.54,-6.85 17.94,-29.52 25.02,-30.82 15.72,-16.27 31.87,-31.75 51.85,-44.3 17.51,-10.99 47,-26.86 68.07,-31.09 -2.51,-1.53 -0.87,-1.18 -4.27,-1.79 -0.58,-0.1 -2.5,-0.11 -3.11,-0.11 -8.79,-0.02 -12.53,5.04 -14.72,5.41 -3.52,0.61 -10.44,-3.52 -26.62,-3.52l0.26 -10.08c15.38,-0.9 9.84,0.65 11.66,-2.88 -1.75,-0.4 -5.6,1.47 -11.6,1.11 -0.95,-11.25 15.71,-2.53 22.77,-20.45 -6.85,-7.21 -6.92,-11.47 -20.55,-5.82 -4.16,-0.71 -0.41,1.54 -3.95,-2.01 -10.05,10.8 -6.09,6.34 -10.1,7.91 -2.6,1.02 -12.13,10.07 -23.02,-0.48l10.95 -4.11 0.15 -4.01c-5.58,1.23 -11.5,3.93 -16.1,7.15 8.47,24.58 41.21,-6.84 56.39,-1.86l0.84 5.72c-4.96,6.04 -27.49,15.46 -36.18,17.27 -15.21,3.19 -28.48,-4.29 -35.74,-15.17 -16.45,-24.64 4.99,-55.22 42.97,-44.69 2.54,-0.44 -0.2,2.87 2.64,-1.25 -12.77,-12.13 -39.2,-3.36 -48.86,10.29 -5.66,7.99 -8.45,15.64 -6.14,25.42 5.03,21.31 8.98,9.46 9.33,23.97 -8.48,-1.41 -4.85,-2.64 -10.99,-6.85 -6.06,-4.15 -13.46,-9.16 -18.01,-14.87 -0.34,-0.42 -3.65,-4.31 -3.89,-4.49 -3.56,-2.74 -3.8,-2.43 -8.07,-1.66 5.3,11.09 48.46,40 44.64,48.32 -4.99,5.51 -19.07,17.13 -26,20.99 -26.7,14.87 -51.37,-8.36 -48.48,-32.72 1.31,-11.04 10.85,-18.63 17.44,-27.11 -6.99,-7.63 -13.91,-9.47 -10.59,-19.7l-5.38 -0.72c-0.39,-5.13 0.53,-2.54 -1.77,-6.11 -9.86,0.11 -8.45,1.33 -16.14,2.92l-5.16 -3.77c3.23,-6.52 6.15,-4.4 13.45,-5.38 6.03,-7.24 1.79,-7.04 12.53,-14.86l20.24 -13.12c1.69,-0.91 2.56,-1.82 4.4,-3.18 5.41,-4 4.24,-1.38 9.48,-4.48 3.52,-2.07 4.05,-3.65 8.45,-5.49 6.12,-2.57 7.65,-0.62 7.63,-6 -11.56,2.64 -46.06,24.28 -56.56,31.73 -16.82,11.93 -33.09,24.26 -47.15,37.79 -15.25,14.68 -26.65,27.12 -40.33,43.9 -6.69,8.2 -31.45,42.44 -32.01,50.16zm-5.06 311.73l5.23 10.97c7.01,1.62 79.87,-0.08 95.68,-0.08 33.89,0 68.36,-0.54 102.17,0.08l1.04 -3.19c-4.03,-4.13 -6.18,-7.17 -11.62,-9.57l0.61 1.91c-5.33,-1.98 0.32,-0.95 -5.54,-0.37 -26.38,2.6 -163.57,-1.97 -184.51,0.77 -0.18,2.12 -1.31,1.85 0.79,0.59l-3.85 -1.11zm5.23 10.97l7.05 10.67c15.07,1.19 59.58,0.27 79.77,0.26 17.45,0 16.58,1.13 25.06,1.31l77.39 -2.17c5.48,-0.74 17.58,0.88 24.86,0.82 -2.32,-4.65 -9.7,-11.43 -15.24,-14.08l-1.04 3.19c-33.81,-0.62 -68.28,-0.08 -102.17,-0.08 -15.81,0 -88.67,1.7 -95.68,0.08zm201.28 -418.81c4.88,-0.28 26.51,-10.24 29.54,-13.44 -8.53,-11.64 -31.31,-2.27 -29.54,13.44zm-135.01 303.92c14.1,1.52 16.11,-7.7 11.94,-17.63 -4.08,-9.73 -14.44,-7.96 -23.95,-6.21 -1.41,9.51 4.42,17.88 12.01,23.84zm14.68 -122.77c15.43,-8.99 12,-28.45 -10.12,-28.15 -5.43,8.48 -7.39,28.44 10.12,28.15zm304.1 -210.29c-7.18,-1.27 -16.84,-0.34 -23.24,2.8 -25.5,12.52 27.15,35.58 23.24,-2.8zm-207.3 77.95c-3.94,-4.91 -24.12,-24.04 -28.91,-26.25 -27.41,23.7 -3.04,48.14 13.49,39.35 4.36,-2.32 12.95,-9.36 15.42,-13.1z"/>
  </g>
 </g>
</svg>
